<svg width="205" height="37" viewBox="0 0 205 37" fill="none" xmlns="http://www.w3.org/2000/svg">
<g clip-path="url(#clip0_205_1167)">
<path d="M105.061 5.95659H113.593C114.884 5.95659 116.492 8.18778 116.492 9.45897C116.492 10.9306 114.826 12.9614 113.314 12.9614H105.061V27.1028C105.061 27.3349 106.168 28.5902 106.447 28.7959C109.72 31.1485 116.265 27.261 118.773 24.8663C121.087 22.6562 122.109 19.4334 124.918 17.851C128.417 15.8835 133.05 16.1684 136.96 16.0418C136.949 7.83965 129.803 12.4866 125.666 12.2968C122.035 12.128 121.108 7.04317 124.486 5.65593C128.897 3.84144 136.807 3.82034 140.738 6.79526C145.049 10.0603 144.591 13.1249 145.081 17.8563C145.55 22.4136 150.261 26.6281 154.319 28.2157C157.323 29.392 165.713 31.3489 164.648 25.7155C164.205 23.3683 160.026 23.189 158.156 22.4136C151.305 19.5864 149.65 11.015 155.737 6.39966C159.905 3.23485 167.547 4.15792 171.515 7.35965C174.213 9.53282 175.957 13.0827 179.214 14.3539V2.4542C179.214 1.30432 181.77 -0.0301723 182.988 0.0542225C184.3 0.143892 186.207 1.71575 186.207 3.01332V14.3539C188.474 13.9003 190.703 12.7556 192.199 10.9675C193.143 9.84403 193.517 8.19305 195.151 7.7658C196.784 7.33855 198.302 7.60756 199.203 9.04227C201.564 12.7873 195.672 16.7222 193.48 19.1116C198.492 21.443 201.295 27.6197 200.768 32.9946C200.51 35.6267 197.991 37.0983 195.614 35.8851C193.375 34.7405 194.044 31.4386 193.691 29.4078C193.143 26.2061 189.153 23.9116 186.202 23.3208V33.2636C186.202 33.4535 185.559 34.6878 185.364 34.9462C183.578 37.2935 179.573 36.3862 179.198 33.2689C178.972 31.3805 179.583 22.3872 179.077 21.6277C176.943 20.8312 174.972 19.9925 173.196 18.5525C169.697 15.7095 167.81 10.9886 162.551 11.2576C159.368 11.4212 158.488 15.1187 161.381 16.3741C164.775 17.8457 169.839 18.8901 171.705 22.5613C174.761 28.585 169.286 35.5264 163.115 36.2016C155.768 37.0086 149.882 33.9071 144.369 29.4764C141.034 36.7818 130.315 38.3589 124.27 33.6328C123.242 32.8311 122.647 31.8183 121.709 31.1432C117.561 34.0706 112.66 36.6077 107.422 36.2121C102.642 35.8482 98.7266 33.1001 98.1363 28.1419C97.2141 20.3776 98.6844 11.2049 98.052 3.28233C98.1047 0.159716 102.084 -1.13258 104.086 1.18828C105.377 2.68629 105.056 4.11045 105.056 5.95659H105.061ZM136.96 22.4822H130.662C129.798 22.4822 128.243 24.2439 128.07 25.2092C127.242 29.7718 133.087 31.2803 135.811 28.759C136.011 28.5744 136.955 27.2083 136.955 27.1028V22.4822H136.96Z" fill="#1166D2"/>
<path d="M199.843 0.137128C203.648 -0.632975 206.289 4.50984 202.694 6.91509C197.635 10.3067 194.263 1.26591 199.843 0.137128Z" fill="#1166D2"/>
</g>
<path d="M14.5916 15.7167C18.1259 15.9187 20.9365 16.8443 23.0234 18.4936C25.1103 20.143 26.1538 22.3645 26.1538 25.1583C26.1538 27.3462 25.5984 29.2817 24.4876 30.9647C23.3768 32.6477 21.778 33.9604 19.6911 34.9029C17.6378 35.8454 15.2143 36.3166 12.4205 36.3166C10.199 36.3166 7.96058 35.98 5.70536 35.3068C3.4838 34.6336 1.58202 33.7416 0 32.6308L2.0196 28.6926C3.43332 29.8034 5.01533 30.6617 6.76565 31.2676C8.51597 31.8735 10.2999 32.1764 12.1176 32.1764C15.0123 32.1764 17.2844 31.5537 18.9337 30.3083C20.5831 29.0629 21.4077 27.3967 21.4077 25.3098C21.4077 23.2229 20.5831 21.6409 18.9337 20.5637C17.318 19.453 15.0123 18.8976 12.0166 18.8976H7.11908V15.8177L17.9744 5.11381H1.71666L1.66617 0.721186H24.3866V3.80107L12.471 15.5652L14.5916 15.7167Z" fill="#1E1E1E"/>
<path d="M53.998 6.77998C52.8872 6.07312 51.6082 5.53456 50.1608 5.1643C48.7134 4.76038 47.2997 4.55842 45.9196 4.55842C42.52 4.55842 39.9113 5.73652 38.0937 8.09272C36.3097 10.4153 35.4177 13.5961 35.4177 17.6353C35.4177 18.3422 35.4346 18.8807 35.4682 19.251C36.3097 17.3324 37.6056 15.8682 39.3559 14.8584C41.1063 13.8486 43.21 13.3437 45.6672 13.3437C49.2015 13.3437 51.9784 14.3535 53.998 16.3731C56.0513 18.3927 57.0779 21.1191 57.0779 24.5524C57.0779 26.9423 56.573 29.0292 55.5632 30.8132C54.5534 32.5635 53.1229 33.9267 51.2716 34.9029C49.4203 35.8454 47.266 36.3166 44.8088 36.3166C41.8804 36.3166 39.3559 35.6434 37.2354 34.297C35.1148 32.9506 33.4823 30.9983 32.3378 28.4402C31.2271 25.8483 30.6717 22.7516 30.6717 19.15C30.6717 15.4138 31.2775 12.1487 32.4893 9.35497C33.7011 6.52753 35.4346 4.35646 37.6898 2.84176C39.945 1.29341 42.5873 0.519226 45.6167 0.519226C47.2997 0.519226 49.0668 0.754846 50.9181 1.22609C52.8031 1.69732 54.4693 2.32003 55.9166 3.09421L53.998 6.77998ZM44.8088 17.2314C43.0922 17.2314 41.5943 17.5848 40.3152 18.2917C39.0362 18.9649 38.0432 19.8737 37.3363 21.0181C36.6631 22.1626 36.3434 23.408 36.377 24.7544C36.3434 25.9325 36.6295 27.0769 37.2354 28.1877C37.8412 29.2985 38.7501 30.2241 39.9618 30.9647C41.2072 31.7052 42.7219 32.0754 44.5059 32.0754C46.9294 32.0754 48.8649 31.4022 50.3122 30.0558C51.7933 28.7094 52.5338 26.8581 52.5338 24.502C52.5338 22.2467 51.8438 20.4796 50.4637 19.2005C49.0837 17.8878 47.1987 17.2314 44.8088 17.2314Z" fill="#1E1E1E"/>
<path d="M75.1776 0.519226C79.5534 0.519226 82.9025 2.06758 85.2251 5.1643C87.5476 8.22736 88.7089 12.6368 88.7089 18.3927C88.7089 24.1485 87.5476 28.5748 85.2251 31.6715C82.9025 34.7682 79.5534 36.3166 75.1776 36.3166C70.8018 36.3166 67.4358 34.7682 65.0796 31.6715C62.7571 28.5748 61.5958 24.1485 61.5958 18.3927C61.5958 12.6368 62.7571 8.22736 65.0796 5.1643C67.4358 2.06758 70.8018 0.519226 75.1776 0.519226ZM75.1776 4.40695C69.489 4.40695 66.6448 9.06886 66.6448 18.3927C66.6448 27.7165 69.489 32.3784 75.1776 32.3784C80.8325 32.3784 83.6599 27.7165 83.6599 18.3927C83.6599 9.06886 80.8325 4.40695 75.1776 4.40695Z" fill="#1E1E1E"/>
<defs>
<clipPath id="clip0_205_1167">
<rect width="106.574" height="36.332" fill="white" transform="translate(97.8281)"/>
</clipPath>
</defs>
</svg>
