<svg width="92" height="24" viewBox="0 0 92 24" fill="none" xmlns="http://www.w3.org/2000/svg">
<rect width="92" height="23" rx="2" fill="#6B7280"/>
<path d="M36.598 12.76L35.41 9.604C35.314 9.36 35.216 9.05 35.116 8.674C35.072 8.862 35.024 9.036 34.972 9.196C34.92 9.352 34.872 9.49 34.828 9.61L33.64 12.76H36.598ZM39.256 16H38.17C38.046 16 37.946 15.97 37.87 15.91C37.794 15.846 37.736 15.768 37.696 15.676L36.976 13.768H33.256L32.536 15.676C32.504 15.756 32.448 15.83 32.368 15.898C32.288 15.966 32.188 16 32.068 16H30.982L34.408 7.36H35.83L39.256 16ZM44.4014 11.386C44.2214 11.154 44.0234 10.992 43.8074 10.9C43.5914 10.808 43.3574 10.762 43.1054 10.762C42.6014 10.762 42.2074 10.948 41.9234 11.32C41.6394 11.688 41.4974 12.234 41.4974 12.958C41.4974 13.334 41.5294 13.656 41.5934 13.924C41.6574 14.188 41.7494 14.404 41.8694 14.572C41.9894 14.74 42.1354 14.862 42.3074 14.938C42.4794 15.014 42.6734 15.052 42.8894 15.052C43.2174 15.052 43.4994 14.982 43.7354 14.842C43.9754 14.698 44.1974 14.496 44.4014 14.236V11.386ZM45.6914 7.12V16H44.9114C44.7394 16 44.6294 15.918 44.5814 15.754L44.4674 15.088C44.2114 15.388 43.9194 15.63 43.5914 15.814C43.2674 15.998 42.8894 16.09 42.4574 16.09C42.1134 16.09 41.8014 16.022 41.5214 15.886C41.2414 15.746 41.0014 15.544 40.8014 15.28C40.6014 15.016 40.4454 14.69 40.3334 14.302C40.2254 13.91 40.1714 13.462 40.1714 12.958C40.1714 12.502 40.2314 12.08 40.3514 11.692C40.4754 11.304 40.6514 10.968 40.8794 10.684C41.1074 10.396 41.3834 10.172 41.7074 10.012C42.0354 9.848 42.4014 9.766 42.8054 9.766C43.1654 9.766 43.4714 9.824 43.7234 9.94C43.9754 10.052 44.2014 10.21 44.4014 10.414V7.12H45.6914ZM51.7748 11.386C51.5948 11.154 51.3968 10.992 51.1808 10.9C50.9648 10.808 50.7308 10.762 50.4788 10.762C49.9748 10.762 49.5808 10.948 49.2968 11.32C49.0128 11.688 48.8708 12.234 48.8708 12.958C48.8708 13.334 48.9028 13.656 48.9668 13.924C49.0308 14.188 49.1228 14.404 49.2428 14.572C49.3628 14.74 49.5088 14.862 49.6808 14.938C49.8528 15.014 50.0468 15.052 50.2628 15.052C50.5908 15.052 50.8728 14.982 51.1088 14.842C51.3488 14.698 51.5708 14.496 51.7748 14.236V11.386ZM53.0648 7.12V16H52.2848C52.1128 16 52.0028 15.918 51.9548 15.754L51.8408 15.088C51.5848 15.388 51.2928 15.63 50.9648 15.814C50.6408 15.998 50.2628 16.09 49.8308 16.09C49.4868 16.09 49.1748 16.022 48.8948 15.886C48.6148 15.746 48.3748 15.544 48.1748 15.28C47.9748 15.016 47.8188 14.69 47.7068 14.302C47.5988 13.91 47.5448 13.462 47.5448 12.958C47.5448 12.502 47.6048 12.08 47.7248 11.692C47.8488 11.304 48.0248 10.968 48.2528 10.684C48.4808 10.396 48.7568 10.172 49.0808 10.012C49.4088 9.848 49.7748 9.766 50.1788 9.766C50.5388 9.766 50.8448 9.824 51.0968 9.94C51.3488 10.052 51.5748 10.21 51.7748 10.414V7.12H53.0648ZM66.2225 7.36V16H65.5085C65.4005 16 65.3085 15.982 65.2325 15.946C65.1565 15.906 65.0845 15.842 65.0165 15.754L60.2705 9.658C60.2825 9.774 60.2905 9.89 60.2945 10.006C60.3025 10.118 60.3065 10.222 60.3065 10.318V16H59.0705V7.36H59.8025C59.8625 7.36 59.9125 7.364 59.9525 7.372C59.9965 7.376 60.0365 7.386 60.0725 7.402C60.1085 7.418 60.1425 7.442 60.1745 7.474C60.2065 7.506 60.2405 7.546 60.2765 7.594L65.0285 13.696C65.0165 13.572 65.0065 13.45 64.9985 13.33C64.9945 13.21 64.9925 13.098 64.9925 12.994V7.36H66.2225ZM72.468 12.25C72.468 12.034 72.436 11.834 72.372 11.65C72.312 11.462 72.222 11.3 72.102 11.164C71.982 11.024 71.832 10.916 71.652 10.84C71.476 10.76 71.272 10.72 71.04 10.72C70.572 10.72 70.204 10.854 69.936 11.122C69.668 11.39 69.498 11.766 69.426 12.25H72.468ZM69.39 13.042C69.406 13.39 69.46 13.692 69.552 13.948C69.644 14.2 69.766 14.41 69.918 14.578C70.074 14.746 70.258 14.872 70.47 14.956C70.686 15.036 70.926 15.076 71.19 15.076C71.442 15.076 71.66 15.048 71.844 14.992C72.028 14.932 72.188 14.868 72.324 14.8C72.46 14.728 72.576 14.664 72.672 14.608C72.768 14.548 72.856 14.518 72.936 14.518C73.04 14.518 73.12 14.558 73.176 14.638L73.542 15.112C73.39 15.292 73.218 15.444 73.026 15.568C72.834 15.692 72.63 15.794 72.414 15.874C72.198 15.95 71.976 16.004 71.748 16.036C71.52 16.072 71.298 16.09 71.082 16.09C70.658 16.09 70.264 16.02 69.9 15.88C69.54 15.736 69.226 15.526 68.958 15.25C68.694 14.974 68.486 14.632 68.334 14.224C68.186 13.816 68.112 13.346 68.112 12.814C68.112 12.39 68.178 11.994 68.31 11.626C68.446 11.258 68.638 10.938 68.886 10.666C69.138 10.394 69.442 10.18 69.798 10.024C70.158 9.864 70.564 9.784 71.016 9.784C71.392 9.784 71.74 9.846 72.06 9.97C72.38 10.09 72.656 10.268 72.888 10.504C73.12 10.74 73.3 11.03 73.428 11.374C73.56 11.714 73.626 12.102 73.626 12.538C73.626 12.738 73.604 12.872 73.56 12.94C73.516 13.008 73.436 13.042 73.32 13.042H69.39ZM83.9567 9.88L81.9947 16H80.9687C80.8487 16 80.7647 15.922 80.7167 15.766L79.4987 11.956C79.4667 11.848 79.4367 11.74 79.4087 11.632C79.3847 11.524 79.3627 11.418 79.3427 11.314C79.2987 11.53 79.2447 11.746 79.1807 11.962L77.9447 15.766C77.9007 15.922 77.8067 16 77.6627 16H76.6847L74.7227 9.88H75.7427C75.8427 9.88 75.9247 9.906 75.9887 9.958C76.0567 10.006 76.1007 10.064 76.1207 10.132L77.1407 13.696C77.1807 13.86 77.2147 14.02 77.2427 14.176C77.2747 14.328 77.3027 14.48 77.3267 14.632C77.3667 14.48 77.4087 14.328 77.4527 14.176C77.4967 14.02 77.5427 13.86 77.5907 13.696L78.7367 10.114C78.7567 10.042 78.7967 9.984 78.8567 9.94C78.9207 9.892 78.9967 9.868 79.0847 9.868H79.6487C79.7407 9.868 79.8187 9.892 79.8827 9.94C79.9467 9.984 79.9887 10.042 80.0087 10.114L81.1247 13.696C81.1727 13.86 81.2167 14.02 81.2567 14.176C81.3007 14.332 81.3407 14.488 81.3767 14.644C81.4047 14.492 81.4347 14.338 81.4667 14.182C81.4987 14.026 81.5367 13.864 81.5807 13.696L82.6187 10.132C82.6427 10.06 82.6867 10 82.7507 9.952C82.8147 9.904 82.8927 9.88 82.9847 9.88H83.9567Z" fill="white"/>
<path d="M13 13H8C7.71667 13 7.47934 12.904 7.288 12.712C7.09667 12.52 7.00067 12.2827 7 12C6.99934 11.7173 7.09534 11.48 7.288 11.288C7.48067 11.096 7.718 11 8 11H13V6C13 5.71667 13.096 5.47934 13.288 5.288C13.48 5.09667 13.7173 5.00067 14 5C14.2827 4.99934 14.5203 5.09534 14.713 5.288C14.9057 5.48067 15.0013 5.718 15 6V11H20C20.2833 11 20.521 11.096 20.713 11.288C20.905 11.48 21.0007 11.7173 21 12C20.9993 12.2827 20.9033 12.5203 20.712 12.713C20.5207 12.9057 20.2833 13.0013 20 13H15V18C15 18.2833 14.904 18.521 14.712 18.713C14.52 18.905 14.2827 19.0007 14 19C13.7173 18.9993 13.48 18.9033 13.288 18.712C13.096 18.5207 13 18.2833 13 18V13Z" fill="white"/>
</svg>
