<svg width="15" height="15" viewBox="0 0 15 15" fill="none" xmlns="http://www.w3.org/2000/svg">
<rect x="0.25" y="0.25" width="14.5" height="14.5" rx="1.75" stroke="black" stroke-opacity="0.3" stroke-width="0.5"/>
<path fill-rule="evenodd" clip-rule="evenodd" d="M9.81905 9.14616C10.4127 8.38049 10.6925 7.41732 10.6015 6.4526C10.5105 5.48788 10.0555 4.59408 9.32914 3.95304C8.60277 3.31199 7.65956 2.97185 6.69141 3.00182C5.72325 3.0318 4.80287 3.42962 4.11751 4.11437C3.43155 4.79959 3.03258 5.72069 3.00191 6.68997C2.97123 7.65925 3.31116 8.60376 3.95242 9.33102C4.59368 10.0583 5.488 10.5136 6.45315 10.6041C7.41829 10.6946 8.38162 10.4135 9.14682 9.81818L9.16729 9.83961L11.1868 11.8604C11.2311 11.9047 11.2836 11.9398 11.3414 11.9637C11.3992 11.9877 11.4611 12 11.5237 12C11.5862 12 11.6482 11.9877 11.7059 11.9637C11.7637 11.9398 11.8162 11.9047 11.8605 11.8604C11.9047 11.8162 11.9398 11.7636 11.9637 11.7058C11.9877 11.648 12 11.586 12 11.5235C12 11.4609 11.9877 11.3989 11.9637 11.3411C11.9398 11.2833 11.9047 11.2308 11.8605 11.1865L9.84047 9.16617L9.81905 9.14616ZM8.83071 4.78829C9.0995 5.05285 9.31328 5.36803 9.4597 5.71565C9.60613 6.06328 9.68231 6.43646 9.68384 6.81369C9.68538 7.19091 9.61224 7.5647 9.46865 7.91351C9.32506 8.26231 9.11385 8.57923 8.84722 8.84597C8.58059 9.1127 8.2638 9.32399 7.91514 9.46764C7.56647 9.61129 7.19282 9.68446 6.81575 9.68292C6.43868 9.68138 6.06564 9.60518 5.71816 9.45869C5.37067 9.31221 5.05562 9.09835 4.79116 8.82944C4.26268 8.29206 3.96786 7.56754 3.97092 6.81369C3.97399 6.05984 4.2747 5.33774 4.80755 4.80468C5.34039 4.27162 6.0622 3.9708 6.81575 3.96773C7.5693 3.96466 8.29354 4.25959 8.83071 4.78829Z" fill="#1166D2"/>
</svg>
