<svg width="15" height="15" viewBox="0 0 15 15" fill="none" xmlns="http://www.w3.org/2000/svg">
<rect x="0.25" y="0.25" width="14.5" height="14.5" rx="1.75" stroke="black" stroke-opacity="0.3" stroke-width="0.5"/>
<path d="M7.5 2.5C7.97586 2.5 8.36207 2.88621 8.36207 3.36207V6.63793H11.6379C11.8666 6.63793 12.0858 6.72876 12.2475 6.89043C12.4092 7.05209 12.5 7.27137 12.5 7.5C12.5 7.72863 12.4092 7.94791 12.2475 8.10958C12.0858 8.27124 11.8666 8.36207 11.6379 8.36207H8.36207V11.6379C8.36207 11.8666 8.27124 12.0858 8.10958 12.2475C7.94791 12.4092 7.72863 12.5 7.5 12.5C7.27137 12.5 7.05209 12.4092 6.89043 12.2475C6.72876 12.0858 6.63793 11.8666 6.63793 11.6379V8.36207H3.36207C3.13343 8.36207 2.91416 8.27124 2.75249 8.10958C2.59082 7.94791 2.5 7.72863 2.5 7.5C2.5 7.27137 2.59082 7.05209 2.75249 6.89043C2.91416 6.72876 3.13343 6.63793 3.36207 6.63793H6.63793V3.36207C6.63793 2.88621 7.02414 2.5 7.5 2.5Z" fill="#1166D2"/>
</svg>
