<svg width="44" height="44" viewBox="0 0 44 44" fill="none" xmlns="http://www.w3.org/2000/svg">
<g clip-path="url(#clip0_205_1190)">
<path d="M9.636 0H34.364C39.6859 0 44 4.31406 44 9.636V34.364C44 39.6859 39.6859 44 34.364 44H9.636C4.31406 44 0 39.6859 0 34.364V9.636C0 4.31406 4.31406 0 9.636 0Z" fill="url(#paint0_linear_205_1190)"/>
<path d="M14.1008 31.9361L14.105 31.9375L12.6006 34.5431C12.0514 35.4942 10.8352 35.8201 9.88407 35.271C8.93291 34.7218 8.60704 33.5057 9.15618 32.5545L10.2644 30.635L10.3708 30.4507C10.5607 30.1778 11.0294 29.7065 11.967 29.7952C11.967 29.7952 14.1734 30.0346 14.3331 31.1814C14.3331 31.1814 14.3547 31.5587 14.1008 31.9361ZM35.4379 25.2811H30.7468C30.4273 25.2596 30.2879 25.1455 30.2329 25.0791L30.2294 25.0731L25.2078 16.3752L25.2012 16.3795L24.9001 15.9478C24.4065 15.1929 23.6227 17.1234 23.6227 17.1234C22.6869 19.2746 23.7556 21.7202 24.128 22.4594L31.1031 34.5405C31.652 35.4915 32.8682 35.8175 33.8196 35.2682C34.7705 34.7191 35.0966 33.5029 34.5473 32.5517L32.8033 29.5309C32.7694 29.4576 32.7106 29.259 33.0683 29.2581H35.4379C36.5362 29.2581 37.4265 28.3678 37.4265 27.2695C37.4265 26.1712 36.5362 25.2811 35.4379 25.2811ZM26.3261 27.9842C26.3261 27.9842 26.5766 29.2579 25.6077 29.2579H8.26569C7.16741 29.2579 6.2771 28.3676 6.2771 27.2693C6.2771 26.1711 7.16741 25.2807 8.26569 25.2807H12.7241C13.4439 25.2392 13.6144 24.8236 13.6144 24.8236L13.6186 24.8256L19.4383 14.7455L19.4365 14.7452C19.5426 14.5504 19.4542 14.3663 19.4389 14.3373L17.5169 11.0082C16.9677 10.0573 17.2936 8.8409 18.2448 8.29193C19.1959 7.74296 20.4121 8.0685 20.9612 9.01965L21.8526 10.5636L22.7424 9.0224C23.2915 8.07142 24.5077 7.74537 25.4589 8.29468C26.41 8.84399 26.7359 10.0598 26.1868 11.011L18.0884 25.0377C18.0529 25.1231 18.0421 25.2572 18.3056 25.2807H23.1463L23.1473 25.328C23.1473 25.328 25.9451 25.3715 26.3261 27.9842Z" fill="white"/>
</g>
<defs>
<linearGradient id="paint0_linear_205_1190" x1="2200" y1="0" x2="2200" y2="4400" gradientUnits="userSpaceOnUse">
<stop stop-color="#17C9FB"/>
<stop offset="1" stop-color="#1A74E8"/>
</linearGradient>
<clipPath id="clip0_205_1190">
<rect width="44" height="44" fill="white"/>
</clipPath>
</defs>
</svg>
