<svg width="28" height="28" viewBox="0 0 28 28" fill="none" xmlns="http://www.w3.org/2000/svg">
<circle cx="14" cy="14" r="14" fill="#708099"/>
<path d="M11.98 15.575H9.0025V18.7175H7.69V15.575H4.7275V14.36H7.69V11.225H9.0025V14.36H11.98V15.575ZM14.3362 12.17C14.4112 11.66 14.5512 11.2125 14.7562 10.8275C14.9662 10.4425 15.2287 10.1225 15.5437 9.8675C15.8587 9.6075 16.2187 9.4125 16.6237 9.2825C17.0337 9.1475 17.4762 9.08 17.9512 9.08C18.4312 9.08 18.8662 9.15 19.2562 9.29C19.6512 9.425 19.9887 9.615 20.2687 9.86C20.5537 10.105 20.7712 10.3975 20.9212 10.7375C21.0762 11.0775 21.1537 11.45 21.1537 11.855C21.1537 12.2 21.1112 12.505 21.0262 12.77C20.9462 13.03 20.8287 13.26 20.6737 13.46C20.5237 13.66 20.3387 13.8275 20.1187 13.9625C19.8987 14.0975 19.6512 14.21 19.3762 14.3C20.0462 14.495 20.5487 14.8075 20.8837 15.2375C21.2187 15.6625 21.3862 16.1975 21.3862 16.8425C21.3862 17.3625 21.2887 17.825 21.0937 18.23C20.8987 18.635 20.6337 18.9775 20.2987 19.2575C19.9687 19.5375 19.5812 19.7525 19.1362 19.9025C18.6962 20.0475 18.2287 20.12 17.7337 20.12C17.1787 20.12 16.6987 20.055 16.2937 19.925C15.8887 19.79 15.5387 19.6 15.2437 19.355C14.9537 19.105 14.7112 18.805 14.5162 18.455C14.3212 18.105 14.1562 17.7125 14.0212 17.2775L14.7187 16.985C14.9037 16.905 15.0787 16.8825 15.2437 16.9175C15.4137 16.9525 15.5362 17.045 15.6112 17.195C15.6912 17.355 15.7812 17.5275 15.8812 17.7125C15.9812 17.8925 16.1087 18.06 16.2637 18.215C16.4237 18.365 16.6187 18.4925 16.8487 18.5975C17.0837 18.6975 17.3712 18.7475 17.7112 18.7475C18.0562 18.7475 18.3562 18.6925 18.6112 18.5825C18.8712 18.4675 19.0862 18.3225 19.2562 18.1475C19.4312 17.9675 19.5612 17.7675 19.6462 17.5475C19.7312 17.3275 19.7737 17.11 19.7737 16.895C19.7737 16.625 19.7412 16.3775 19.6762 16.1525C19.6112 15.9225 19.4837 15.7275 19.2937 15.5675C19.1087 15.4075 18.8437 15.2825 18.4987 15.1925C18.1587 15.0975 17.7112 15.05 17.1562 15.05V13.8875C17.6112 13.8825 17.9937 13.8375 18.3037 13.7525C18.6187 13.6625 18.8687 13.5425 19.0537 13.3925C19.2437 13.2375 19.3787 13.0525 19.4587 12.8375C19.5437 12.6225 19.5862 12.3875 19.5862 12.1325C19.5862 11.8575 19.5437 11.615 19.4587 11.405C19.3737 11.195 19.2537 11.02 19.0987 10.88C18.9487 10.735 18.7687 10.6275 18.5587 10.5575C18.3487 10.4875 18.1162 10.4525 17.8612 10.4525C17.6162 10.4525 17.3887 10.4875 17.1787 10.5575C16.9737 10.6275 16.7887 10.725 16.6237 10.85C16.4637 10.975 16.3287 11.125 16.2187 11.3C16.1087 11.47 16.0287 11.6575 15.9787 11.8625C15.9087 12.0675 15.8137 12.205 15.6937 12.275C15.5787 12.345 15.4087 12.36 15.1837 12.32L14.3362 12.17Z" fill="white"/>
</svg>
