<svg width="28" height="28" viewBox="0 0 28 28" fill="none" xmlns="http://www.w3.org/2000/svg">
<circle cx="14" cy="14" r="14" fill="#708099"/>
<path d="M11.98 15.575H9.0025V18.7175H7.69V15.575H4.7275V14.36H7.69V11.225H9.0025V14.36H11.98V15.575ZM18.8587 16.01V12.065C18.8587 11.75 18.8812 11.405 18.9262 11.03L15.2962 16.01H18.8587ZM21.7537 16.01V16.94C21.7537 17.03 21.7237 17.1075 21.6637 17.1725C21.6087 17.2375 21.5237 17.27 21.4087 17.27H20.2612V20H18.8587V17.27H14.1862C14.0712 17.27 13.9712 17.2375 13.8862 17.1725C13.8062 17.1025 13.7537 17.0175 13.7287 16.9175L13.5637 16.0925L18.7462 9.1925H20.2612V16.01H21.7537Z" fill="white"/>
</svg>
