<svg width="29" height="29" viewBox="0 0 29 29" fill="none" xmlns="http://www.w3.org/2000/svg">
<path d="M4.46364 0.902012L14.4996 10.938L24.4836 0.954012C24.7042 0.719278 24.9698 0.531498 25.2647 0.401934C25.5596 0.27237 25.8776 0.20369 26.1996 0.200012C26.8892 0.200012 27.5505 0.47394 28.0381 0.961534C28.5257 1.44913 28.7996 2.11045 28.7996 2.80001C28.8057 3.11878 28.7466 3.43542 28.6258 3.7305C28.5051 4.02559 28.3254 4.29289 28.0976 4.51601L17.9836 14.5L28.0976 24.614C28.5262 25.0332 28.7774 25.6009 28.7996 26.2C28.7996 26.8896 28.5257 27.5509 28.0381 28.0385C27.5505 28.5261 26.8892 28.8 26.1996 28.8C25.8683 28.8138 25.5377 28.7585 25.2288 28.6376C24.92 28.5167 24.6397 28.333 24.4056 28.098L14.4996 18.062L4.48964 28.072C4.26996 28.2989 4.00751 28.4801 3.71745 28.605C3.42738 28.73 3.11545 28.7962 2.79964 28.8C2.11008 28.8 1.44876 28.5261 0.961164 28.0385C0.473569 27.5509 0.199642 26.8896 0.199642 26.2C0.19358 25.8812 0.252722 25.5646 0.373439 25.2695C0.494155 24.9744 0.6739 24.7071 0.901642 24.484L11.0156 14.5L0.901642 4.38601C0.473123 3.96679 0.221845 3.39908 0.199642 2.80001C0.199642 2.11045 0.473569 1.44913 0.961164 0.961534C1.44876 0.47394 2.11008 0.200012 2.79964 0.200012C3.42364 0.207812 4.02164 0.460012 4.46364 0.902012Z" fill="white"/>
</svg>
