<svg width="17" height="17" viewBox="0 0 17 17" fill="none" xmlns="http://www.w3.org/2000/svg">
<path d="M2.58132 0.48065L8.49999 6.39932L14.388 0.511317C14.518 0.372884 14.6747 0.262142 14.8486 0.185732C15.0225 0.109323 15.2101 0.0688191 15.4 0.0666504C15.8067 0.0666504 16.1967 0.228197 16.4842 0.515753C16.7718 0.803309 16.9333 1.19332 16.9333 1.59998C16.9369 1.78797 16.902 1.97471 16.8308 2.14874C16.7596 2.32276 16.6536 2.4804 16.5193 2.61198L10.5547 8.49998L16.5193 14.4647C16.772 14.7119 16.9202 15.0467 16.9333 15.4C16.9333 15.8066 16.7718 16.1967 16.4842 16.4842C16.1967 16.7718 15.8067 16.9333 15.4 16.9333C15.2046 16.9414 15.0096 16.9088 14.8275 16.8375C14.6453 16.7663 14.48 16.6579 14.342 16.5193L8.49999 10.6006L2.59666 16.504C2.4671 16.6378 2.31232 16.7446 2.14126 16.8183C1.9702 16.892 1.78623 16.9311 1.59999 16.9333C1.19332 16.9333 0.803314 16.7718 0.515759 16.4842C0.228203 16.1967 0.0666557 15.8066 0.0666557 15.4C0.0630808 15.212 0.0979594 15.0253 0.169151 14.8512C0.240343 14.6772 0.346347 14.5196 0.480656 14.388L6.44532 8.49998L0.480656 2.53532C0.227939 2.28808 0.0797498 1.95328 0.0666557 1.59998C0.0666557 1.19332 0.228203 0.803309 0.515759 0.515753C0.803314 0.228197 1.19332 0.0666504 1.59999 0.0666504C1.96799 0.0712504 2.32066 0.219984 2.58132 0.48065Z" fill="#6B7280"/>
</svg>
