<svg width="48" height="48" viewBox="0 0 48 48" fill="none" xmlns="http://www.w3.org/2000/svg">
<g clip-path="url(#clip0_205_1193)">
<path d="M16.7214 1.57874C11.9254 3.2425 7.78939 6.40037 4.92082 10.5885C2.05225 14.7766 0.602319 19.7743 0.78401 24.8474C0.965701 29.9204 2.76943 34.8016 5.93026 38.7738C9.0911 42.7459 13.4424 45.5998 18.3451 46.9162C22.3198 47.9419 26.4841 47.9869 30.4801 47.0475C34.1 46.2344 37.4468 44.4951 40.1926 42C43.0504 39.3238 45.1247 35.9193 46.1926 32.1525C47.3533 28.0563 47.5598 23.7485 46.7964 19.56H24.4763V28.8187H37.4026C37.1443 30.2954 36.5907 31.7049 35.7749 32.9626C34.9592 34.2204 33.8981 35.3006 32.6551 36.1387C31.0767 37.1829 29.2973 37.8854 27.4314 38.2012C25.5599 38.5492 23.6403 38.5492 21.7689 38.2012C19.8721 37.8091 18.0777 37.0262 16.5001 35.9025C13.9657 34.1084 12.0626 31.5597 11.0626 28.62C10.0457 25.6252 10.0457 22.3785 11.0626 19.3837C11.7744 17.2846 12.9512 15.3733 14.5051 13.7925C16.2833 11.9503 18.5346 10.6335 21.0119 9.98653C23.4893 9.33958 26.0969 9.38748 28.5489 10.125C30.4642 10.713 32.2158 11.7403 33.6638 13.125C35.1213 11.675 36.5764 10.2212 38.0289 8.76374C38.7789 7.97999 39.5964 7.23374 40.3351 6.43124C38.1247 4.37428 35.5302 2.77371 32.7001 1.72124C27.5465 -0.150045 21.9075 -0.200334 16.7214 1.57874Z" fill="white"/>
<path d="M16.7212 1.57875C21.9069 -0.201537 27.5459 -0.152571 32.6999 1.7175C35.5305 2.77711 38.1239 4.38539 40.3312 6.45C39.5812 7.2525 38.7899 8.0025 38.0249 8.7825C36.5699 10.235 35.1162 11.6825 33.6637 13.125C32.2156 11.7403 30.464 10.713 28.5487 10.125C26.0976 9.3849 23.49 9.33423 21.012 9.97853C18.534 10.6228 16.2813 11.9372 14.5012 13.7775C12.9473 15.3583 11.7705 17.2696 11.0587 19.3687L3.28491 13.35C6.06744 7.8321 10.8852 3.61134 16.7212 1.57875Z" fill="#E33629"/>
<path d="M1.22256 19.3125C1.64039 17.2417 2.33407 15.2364 3.28506 13.35L11.0588 19.3838C10.0419 22.3785 10.0419 25.6252 11.0588 28.62C8.46881 30.62 5.87756 32.63 3.28506 34.65C0.904373 29.9112 0.178305 24.5119 1.22256 19.3125Z" fill="#F8BD00"/>
<path d="M24.4763 19.5562H46.7963C47.5598 23.7447 47.3532 28.0525 46.1925 32.1487C45.1247 35.9155 43.0503 39.32 40.1925 41.9962C37.6838 40.0387 35.1638 38.0962 32.655 36.1387C33.8988 35.2998 34.9604 34.2183 35.7762 32.9592C36.592 31.7001 37.1451 30.2893 37.4025 28.8112H24.4763C24.4725 25.7287 24.4763 22.6425 24.4763 19.5562Z" fill="#587DBD"/>
<path d="M3.28125 34.65C5.87375 32.65 8.465 30.64 11.055 28.62C12.057 31.5607 13.9628 34.1096 16.5 35.9025C18.0825 37.021 19.8807 37.7975 21.78 38.1825C23.6515 38.5305 25.571 38.5305 27.4425 38.1825C29.3085 37.8666 31.0878 37.1641 32.6662 36.12C35.175 38.0775 37.695 40.02 40.2037 41.9775C37.4583 44.474 34.1116 46.2145 30.4912 47.0287C26.4953 47.9681 22.331 47.9231 18.3562 46.8975C15.2126 46.0581 12.2763 44.5785 9.73125 42.5512C7.03748 40.4126 4.83733 37.7174 3.28125 34.65Z" fill="#319F43"/>
</g>
<defs>
<clipPath id="clip0_205_1193">
<rect width="48" height="48" fill="white"/>
</clipPath>
</defs>
</svg>
