<svg width="28" height="28" viewBox="0 0 28 28" fill="none" xmlns="http://www.w3.org/2000/svg">
<circle cx="14" cy="14" r="14" fill="#A7CDFD"/>
<path d="M13.6425 13.705C14.0325 13.705 14.375 13.655 14.67 13.555C14.97 13.455 15.2175 13.315 15.4125 13.135C15.6125 12.95 15.7625 12.7275 15.8625 12.4675C15.9625 12.2075 16.0125 11.9175 16.0125 11.5975C16.0125 11.2825 15.9625 11 15.8625 10.75C15.7675 10.5 15.6225 10.2875 15.4275 10.1125C15.2325 9.9375 14.985 9.805 14.685 9.715C14.39 9.62 14.0425 9.5725 13.6425 9.5725H12.0375V13.705H13.6425ZM13.6425 8.2C14.3475 8.2 14.9575 8.2825 15.4725 8.4475C15.9925 8.6125 16.42 8.845 16.755 9.145C17.095 9.44 17.3475 9.7975 17.5125 10.2175C17.6775 10.6325 17.76 11.0925 17.76 11.5975C17.76 12.1125 17.6725 12.585 17.4975 13.015C17.3225 13.44 17.0625 13.8075 16.7175 14.1175C16.3725 14.4225 15.9425 14.6625 15.4275 14.8375C14.9175 15.0075 14.3225 15.0925 13.6425 15.0925H12.0375V19H10.2825V8.2H13.6425Z" fill="black"/>
</svg>
