<svg width="28" height="28" viewBox="0 0 28 28" fill="none" xmlns="http://www.w3.org/2000/svg">
<circle cx="14" cy="14" r="14" fill="#E9A394"/>
<path d="M13.382 14.164C13.718 14.164 14.014 14.124 14.27 14.044C14.53 13.96 14.746 13.844 14.918 13.696C15.094 13.544 15.226 13.364 15.314 13.156C15.402 12.948 15.446 12.718 15.446 12.466C15.446 11.954 15.278 11.568 14.942 11.308C14.606 11.048 14.102 10.918 13.43 10.918H12.158V14.164H13.382ZM17.354 18.598H16.322C16.11 18.598 15.954 18.516 15.854 18.352L13.622 15.28C13.554 15.184 13.48 15.116 13.4 15.076C13.324 15.032 13.204 15.01 13.04 15.01H12.158V18.598H11V10H13.43C13.974 10 14.444 10.056 14.84 10.168C15.236 10.276 15.562 10.434 15.818 10.642C16.078 10.85 16.27 11.102 16.394 11.398C16.518 11.69 16.58 12.018 16.58 12.382C16.58 12.686 16.532 12.97 16.436 13.234C16.34 13.498 16.2 13.736 16.016 13.948C15.836 14.156 15.614 14.334 15.35 14.482C15.09 14.63 14.794 14.742 14.462 14.818C14.61 14.902 14.738 15.024 14.846 15.184L17.354 18.598Z" fill="black"/>
</svg>
