<svg width="11" height="11" viewBox="0 0 11 11" fill="none" xmlns="http://www.w3.org/2000/svg">
<path fill-rule="evenodd" clip-rule="evenodd" d="M4.25359 1.72528C4.25346 1.95208 4.2104 2.17663 4.12689 2.3861C4.04338 2.59557 3.92105 2.78585 3.76689 2.94607C3.61273 3.10629 3.42977 3.23331 3.22845 3.31987C3.02713 3.40643 2.8114 3.45084 2.59359 3.45055C2.37579 3.45084 2.16006 3.40643 1.95874 3.31987C1.75742 3.23331 1.57446 3.10629 1.4203 2.94607C1.26614 2.78585 1.14381 2.59557 1.0603 2.3861C0.976786 2.17663 0.933732 1.95208 0.933594 1.72528C0.933732 1.49847 0.976786 1.27392 1.0603 1.06445C1.14381 0.854983 1.26614 0.664702 1.4203 0.504481C1.57446 0.34426 1.75742 0.21724 1.95874 0.130679C2.16006 0.0441183 2.37579 -0.000286657 2.59359 1.39245e-06C2.8114 -0.000286657 3.02713 0.0441183 3.22845 0.130679C3.42977 0.21724 3.61273 0.34426 3.76689 0.504481C3.92105 0.664702 4.04338 0.854983 4.12689 1.06445C4.2104 1.27392 4.25346 1.49847 4.25359 1.72528ZM2.59359 2.35444C2.67317 2.35473 2.75201 2.33868 2.82562 2.3072C2.89923 2.27573 2.96616 2.22945 3.02257 2.17101C3.07898 2.11257 3.12378 2.04312 3.15439 1.96664C3.185 1.89015 3.20082 1.80814 3.20096 1.72528C3.20082 1.64242 3.185 1.5604 3.15439 1.48392C3.12378 1.40743 3.07898 1.33798 3.02257 1.27955C2.96616 1.22111 2.89923 1.17483 2.82562 1.14335C2.75201 1.11187 2.67317 1.09582 2.59359 1.09611C2.51402 1.09582 2.43517 1.11187 2.36157 1.14335C2.28796 1.17483 2.22103 1.22111 2.16462 1.27955C2.10821 1.33798 2.06341 1.40743 2.0328 1.48392C2.00219 1.5604 1.98636 1.64242 1.98623 1.72528C1.98636 1.80814 2.00219 1.89015 2.0328 1.96664C2.06341 2.04312 2.10821 2.11257 2.16462 2.17101C2.22103 2.22945 2.28796 2.27573 2.36157 2.3072C2.43517 2.33868 2.51402 2.35473 2.59359 2.35444ZM10.9336 9.27527C10.9334 9.50203 10.8903 9.72652 10.8067 9.93593C10.7232 10.1453 10.6009 10.3356 10.4467 10.4957C10.2926 10.6559 10.1096 10.7828 9.90833 10.8694C9.70704 10.9559 9.49136 11.0003 9.27359 11C9.05579 11.0003 8.84006 10.9559 8.63874 10.8693C8.43742 10.7828 8.25446 10.6557 8.1003 10.4955C7.94614 10.3353 7.82381 10.145 7.7403 9.93555C7.65679 9.72608 7.61373 9.50153 7.61359 9.27472C7.6138 9.04797 7.65691 8.82348 7.74045 8.61407C7.82399 8.40466 7.94633 8.21445 8.10048 8.05428C8.25463 7.89412 8.43758 7.76715 8.63886 7.68062C8.84015 7.5941 9.05583 7.54971 9.27359 7.55C10.1852 7.55 10.9336 8.31727 10.9336 9.27527ZM9.27359 9.90389C9.35317 9.90418 9.43201 9.88813 9.50562 9.85665C9.57923 9.82517 9.64616 9.77889 9.70257 9.72046C9.75898 9.66202 9.80378 9.59257 9.83439 9.51609C9.865 9.4396 9.88082 9.35758 9.88096 9.27472C9.88096 8.92781 9.60886 8.64611 9.27359 8.64611C9.19402 8.64582 9.11517 8.66187 9.04157 8.69335C8.96796 8.72482 8.90103 8.7711 8.84462 8.82954C8.78821 8.88798 8.74341 8.95743 8.7128 9.03391C8.68219 9.11039 8.66636 9.19241 8.66622 9.27527C8.66643 9.35809 8.68231 9.44005 8.71295 9.51647C8.74359 9.59289 8.7884 9.66227 8.8448 9.72065C8.90121 9.77903 8.96811 9.82526 9.04169 9.8567C9.11526 9.88814 9.19407 9.90418 9.27359 9.90389ZM10.9336 5.18569C10.9335 5.41249 10.8904 5.63705 10.8069 5.84652C10.7234 6.05598 10.6011 6.24627 10.4469 6.40649C10.2927 6.56671 10.1098 6.69373 9.90845 6.78029C9.70713 6.86685 9.4914 6.91125 9.27359 6.91097C9.05579 6.91125 8.84006 6.86685 8.63874 6.78029C8.43742 6.69373 8.25446 6.56671 8.1003 6.40649C7.94614 6.24627 7.82381 6.05598 7.7403 5.84652C7.65679 5.63705 7.61373 5.41249 7.61359 5.18569C7.61373 4.95889 7.65679 4.73434 7.7403 4.52487C7.82381 4.3154 7.94614 4.12512 8.1003 3.9649C8.25446 3.80467 8.43742 3.67765 8.63874 3.59109C8.84006 3.50453 9.05579 3.46013 9.27359 3.46042C9.4914 3.46013 9.70713 3.50453 9.90845 3.59109C10.1098 3.67765 10.2927 3.80467 10.4469 3.9649C10.6011 4.12512 10.7234 4.3154 10.8069 4.52487C10.8904 4.73434 10.9335 4.95889 10.9336 5.18569ZM9.27359 5.81486C9.35317 5.81515 9.43201 5.79909 9.50562 5.76762C9.57923 5.73614 9.64616 5.68986 9.70257 5.63142C9.75898 5.57298 9.80378 5.50354 9.83439 5.42705C9.865 5.35057 9.88082 5.26855 9.88096 5.18569C9.88096 4.83822 9.60886 4.55653 9.27359 4.55653C9.19402 4.55624 9.11517 4.57229 9.04157 4.60377C8.96796 4.63524 8.90103 4.68152 8.84462 4.73996C8.78821 4.7984 8.74341 4.86785 8.7128 4.94433C8.68219 5.02081 8.66636 5.10283 8.66622 5.18569C8.66636 5.26855 8.68219 5.35057 8.7128 5.42705C8.74341 5.50354 8.78821 5.57298 8.84462 5.63142C8.90103 5.68986 8.96796 5.73614 9.04157 5.76762C9.11517 5.79909 9.19402 5.81515 9.27359 5.81486Z" fill="#6B7280"/>
<path fill-rule="evenodd" clip-rule="evenodd" d="M2.59359 2.75014C2.73318 2.75014 2.86705 2.80788 2.96576 2.91066C3.06446 3.01344 3.11991 3.15284 3.11991 3.29819V7.01619C3.1199 7.47237 3.29305 7.91005 3.60164 8.23384C3.91022 8.55764 4.32921 8.74129 4.76728 8.74476L7.77991 8.76887C7.9195 8.77003 8.05292 8.82889 8.15084 8.93249C8.24875 9.03609 8.30313 9.17596 8.30201 9.32131C8.3009 9.46666 8.24438 9.6056 8.14488 9.70756C8.04539 9.80952 7.91108 9.86614 7.77149 9.86498L4.75886 9.84087C4.04308 9.83508 3.3585 9.53493 2.85433 9.00583C2.35016 8.47672 2.06726 7.76156 2.06728 7.01619V3.29819C2.06728 3.15284 2.12273 3.01344 2.22143 2.91066C2.32014 2.80788 2.45401 2.75014 2.59359 2.75014Z" fill="#6B7280"/>
<path fill-rule="evenodd" clip-rule="evenodd" d="M4.70833 5.73375C4.00797 5.73346 3.33637 5.44362 2.84113 4.92793C2.3459 4.41224 2.06756 3.7129 2.06728 2.98361H3.11991C3.12019 3.4222 3.28763 3.84274 3.58546 4.15286C3.88328 4.46299 4.28714 4.63735 4.70833 4.63764H7.7757C7.91529 4.63764 8.04916 4.69538 8.14786 4.79816C8.24656 4.90094 8.30201 5.04034 8.30201 5.18569C8.30201 5.33104 8.24656 5.47044 8.14786 5.57322C8.04916 5.676 7.91529 5.73375 7.7757 5.73375H4.70833Z" fill="#6B7280"/>
</svg>
