<svg width="15" height="14" viewBox="0 0 15 14" fill="none" xmlns="http://www.w3.org/2000/svg">
<path d="M8.22461 6V1C8.22461 0.734784 8.11925 0.48043 7.93172 0.292893C7.74418 0.105357 7.48983 0 7.22461 0C6.95939 0 6.70504 0.105357 6.5175 0.292893C6.32997 0.48043 6.22461 0.734784 6.22461 1V6H1.22461C0.959393 6 0.705039 6.10536 0.517503 6.29289C0.329966 6.48043 0.224609 6.73478 0.224609 7C0.224609 7.26522 0.329966 7.51957 0.517503 7.70711C0.705039 7.89464 0.959393 8 1.22461 8H6.22461V13C6.22461 13.2652 6.32997 13.5196 6.5175 13.7071C6.70504 13.8946 6.95939 14 7.22461 14C7.48983 14 7.74418 13.8946 7.93172 13.7071C8.11925 13.5196 8.22461 13.2652 8.22461 13V8H13.2246C13.4898 8 13.7442 7.89464 13.9317 7.70711C14.1193 7.51957 14.2246 7.26522 14.2246 7C14.2246 6.73478 14.1193 6.48043 13.9317 6.29289C13.7442 6.10536 13.4898 6 13.2246 6H8.22461Z" fill="black"/>
</svg>
